<svg xmlns="http://www.w3.org/2000/svg" height="24" viewBox="0 -960 960 960" width="24" fill="#135bec"><path d="M560-324v-444q0-28 22.5-43 t47.5-6q45 15 90 28.5t90 28.5v470q-47-19-92.5-34.5T625-356q-20-4-36.5 6.5T560-324Zm-160 0q-12-16-28.5-26.5T335-356q-46 11-91.5 26.5T151-295v-470q45-15 90-28.5T331-822q25-9 47.5 6t22.5 43v449Zm80 204q-52-44-118-69.5T226-815q-59 0-97.5 29.5T80-705v535q0 18 12 28.5t28 6.5q13-3 25-10t23-14q16-8 37-14t41-6q61 0 119 19.5t115 59.5q57-40 115-59.5T714-180q20 0 41 6t37 14q11 7 23 14t25 10q16 4 28-6.5t12-28.5v-535q-10-52-48.5-81.5T734-815q-67 0-133 25.5T480-120Z"/></svg>
